<?xml version="1.0"?>
<svg version="1.1" xmlns="http://www.w3.org/2000/svg" width="585" height="88" style=""><path fill="#4a4c4d" d="M42.664,36.44l0,0.336l-0.392,3.36c-0.112,1.008-0.728,1.176-1.904,1.176l-14.056,0l0,10.136l12.936,0c1.064,0,1.4,0.448,1.4,1.232l0,3.192c0,0.952-0.392,1.344-1.344,1.344l-12.992,0l0,15.624c0,1.008-0.392,1.4-1.344,1.4l-4.368,0c-1.12,0-1.512-0.28-1.512-1.512l0-35.84c0-0.896,0.392-1.4,1.288-1.4l21.112,0c0.84,0,1.176,0.28,1.176,0.952z M84.748,54.64c0,12.656-7.224,20.272-17.248,20.272c-10.696,0-16.856-7.784-16.856-19.936c0-12.04,6.72-20.216,17.248-20.216c11.088,0,16.856,8.4,16.856,19.88z M77.02,54.808c0-9.408-3.304-13.944-9.296-13.944c-5.6,0-9.352,5.208-9.352,13.944c0,9.296,3.416,14,9.352,14c5.544,0,9.296-4.872,9.296-14z M127,54.64c0,12.656-7.224,20.272-17.248,20.272c-10.696,0-16.856-7.784-16.856-19.936c0-12.04,6.72-20.216,17.248-20.216c11.088,0,16.856,8.4,16.856,19.88z M119.272,54.808c0-9.408-3.304-13.944-9.296-13.944c-5.6,0-9.352,5.208-9.352,13.944c0,9.296,3.416,14,9.352,14c5.544,0,9.296-4.872,9.296-14z M168.972,55.032c0,6.72-2.296,11.76-6.104,15.008c-3.472,2.912-8.344,4.2-13.888,4.2l-10.696,0c-1.12,0-1.624-0.28-1.624-1.568l0-35.504c0-1.176,0.336-1.68,1.736-1.68l8.064,0c6.44,0,10.808,0.728,14.504,2.856c5.04,2.912,8.008,8.4,8.008,16.688z M161.244,54.976c0-5.096-1.512-8.96-4.368-11.088c-2.296-1.68-5.264-2.296-8.848-2.296l-4.088,0l0,26.6l4.312,0c3.864,0,7.112-0.616,9.464-2.968c2.24-2.24,3.528-5.6,3.528-10.248z M202.376,36.44l0,0.336l-0.392,3.36c-0.112,1.008-0.728,1.176-1.904,1.176l-14.056,0l0,10.136l12.936,0c1.064,0,1.4,0.448,1.4,1.232l0,3.192c0,0.952-0.392,1.344-1.344,1.344l-12.992,0l0,15.624c0,1.008-0.392,1.4-1.344,1.4l-4.368,0c-1.12,0-1.512-0.28-1.512-1.512l0-35.84c0-0.896,0.392-1.4,1.288-1.4l21.112,0c0.84,0,1.176,0.28,1.176,0.952z M234.66,72.896c0,1.008-0.504,1.344-1.344,1.344l-19.936,0c-1.008,0-1.456-0.336-1.456-1.568l0-35.784c0-0.896,0.448-1.4,1.344-1.4l4.48,0c1.008,0,1.4,0.392,1.4,1.456l0,31.304l14.168,0c0.952,0,1.344,0.448,1.344,1.288l0,3.36z M257.928,39.016c0,0.896-0.392,1.176-1.176,1.176l-3.192,0l0,29.344l3.024,0c0.784,0,1.176,0.504,1.176,1.176l0,2.408c0,0.672-0.28,1.12-1.008,1.12l-13.328,0c-0.728,0-1.12-0.448-1.12-1.064l0-2.52c0-0.784,0.336-1.12,1.12-1.12l2.968,0l0-29.344l-3.248,0c-0.784,0-1.12-0.392-1.12-1.12l0-2.464c0-0.616,0.336-1.12,1.008-1.12l13.72,0c0.784,0,1.176,0.504,1.176,1.064l0,2.464z M297.604,73.4c0,0.448-0.28,0.84-1.064,0.84l-5.32,0c-1.064,0-1.68-0.392-2.184-1.232l-7.728-13.048l-0.056,0l-7.728,13.048c-0.504,0.896-1.064,1.232-2.24,1.232l-4.648,0c-0.56,0-1.008-0.28-1.008-0.784c0-0.224,0.112-0.504,0.28-0.784l11.592-18.368l-10.864-17.36c-0.168-0.224-0.168-0.504-0.168-0.728c0-0.448,0.336-0.728,0.784-0.728l5.544,0c0.84,0,1.512,0.392,2.016,1.232l6.888,11.592l0.056,0l7.056-11.76c0.448-0.784,0.896-1.064,1.904-1.064l5.152,0c0.56,0,0.84,0.336,0.84,0.728c0,0.28-0.112,0.56-0.28,0.784l-11.032,16.744l11.984,18.872c0.168,0.224,0.224,0.504,0.224,0.784z"/><path fill="#f20c3a" d="M307.392,51.2l0.744,0l0-5.088q0-1.008,0.768-1.8q0.768-0.768,1.776-0.768t1.8,0.768q0.768,0.792,0.768,1.8l0,5.088l0.744,0l0-5.088q0-1.368-0.972-2.34t-2.34-0.972q-1.344,0-2.316,0.972t-0.972,2.34l0,5.088z M319.03008,42.752q-1.344,0-2.256,0.972q-0.9,0.96-0.9,2.34l0,5.136l0.756,0l0-3.768l4.824,0l0,3.768l0.756,0l0-5.136q0-1.38-0.9-2.34q-0.936-0.972-2.28-0.972z M321.45408,46.688l-4.824,0l0-0.624q0-1.032,0.696-1.788q0.708-0.768,1.704-0.768t1.728,0.768q0.696,0.756,0.696,1.788l0,0.624z M330.18816,42.8l-6.504,0l0,0.732l2.952,0l0,7.692l0.744,0l0-7.692l2.808,0l0-0.732z M338.31024,42.788l-0.756,0l0,5.124q0,1.104-0.768,1.848q-0.756,0.72-1.8,0.72q-1.14,0-1.836-0.72q-0.708-0.732-0.708-1.848l0-5.124l-0.768,0l0,5.124q0,1.368,0.936,2.328q0.948,0.984,2.376,0.984q1.332,0,2.34-0.984q0.984-0.96,0.984-2.328l0-5.124z M343.78032,46.988l0.9,0q0.912,0,1.512-0.6t0.6-1.512q0-0.804-0.6-1.44q-0.636-0.66-1.512-0.66l-3.756,0l-0.744,0l0,8.424l0.744,0l0-4.212l1.956,0l2.556,4.212l0.9,0z M340.92432,46.244l0-2.712l3.756,0q0.552,0,0.972,0.396q0.396,0.396,0.396,0.948q0,0.576-0.396,0.972q-0.42,0.396-0.972,0.396l-3.756,0z M351.6864,42.752q-1.344,0-2.256,0.972q-0.9,0.96-0.9,2.34l0,5.136l0.756,0l0-3.768l4.824,0l0,3.768l0.756,0l0-5.136q0-1.38-0.9-2.34q-0.936-0.972-2.28-0.972z M354.1104,46.688l-4.824,0l0-0.624q0-1.032,0.696-1.788q0.708-0.768,1.704-0.768t1.728,0.768q0.696,0.756,0.696,1.788l0,0.624z M356.74848,51.224l5.868,0l0-0.612l-5.124,0l0-7.812l-0.744,0l0,8.424z M368.96064,43.532l5.724,0l0-0.744l-6.468,0l0,0.144l0,8.268l0.744,0l0-3.744l3.036,0l0-0.78l-3.036,0l0-3.144z M379.31472,42.8q-1.356,0-2.328,0.972q-0.984,0.984-0.984,2.34l0,1.812q0,1.332,0.984,2.316t2.328,0.984q1.356,0,2.34-0.984q0.972-0.972,0.972-2.316l0-1.812q0-1.368-0.972-2.34t-2.34-0.972z M381.88272,46.112l0,1.812q0,1.092-0.768,1.836q-0.756,0.72-1.8,0.72t-1.788-0.72q-0.768-0.744-0.768-1.836l0-1.812q0-1.008,0.768-1.8q0.768-0.768,1.788-0.768q1.008,0,1.8,0.768q0.768,0.792,0.768,1.8z M387.6408,42.8q-1.356,0-2.328,0.972q-0.984,0.984-0.984,2.34l0,1.812q0,1.332,0.984,2.316t2.328,0.984q1.356,0,2.34-0.984q0.972-0.972,0.972-2.316l0-1.812q0-1.368-0.972-2.34t-2.34-0.972z M390.2088,46.112l0,1.812q0,1.092-0.768,1.836q-0.756,0.72-1.8,0.72t-1.788-0.72q-0.768-0.744-0.768-1.836l0-1.812q0-1.008,0.768-1.8q0.768-0.768,1.788-0.768q1.008,0,1.8,0.768q0.768,0.792,0.768,1.8z M395.36688,42.788l-1.836,0l-0.456,0l-0.3,0l0,8.412l0.3,0l0.456,0l1.836,0q1.752,0,3-1.224q1.284-1.26,1.284-3.06q0-1.704-1.284-2.928q-1.26-1.2-3-1.2z M395.36688,50.444l-1.836,0l0-6.876l1.836,0q1.5,0,2.52,0.984q1.008,0.984,1.008,2.364q0,1.5-1.008,2.508q-1.02,1.02-2.52,1.02z M407.32704,43.676l4.524,0l0-0.912l-4.524,0q-0.888,0-1.488,0.696q-0.612,0.708-0.612,1.716q0,0.912,0.612,1.584q0.6,0.684,1.488,0.684l1.2,0l1.224,0q0.54,0,0.96,0.456q0.396,0.48,0.396,1.044q0,0.672-0.39,1.092t-0.966,0.42l-4.524,0l0,0.744l4.524,0q0.9,0,1.5-0.624t0.6-1.632q0-0.912-0.6-1.584q-0.612-0.672-1.5-0.672l-1.224,0l-1.2,0q-0.552,0-0.948-0.48q-0.408-0.444-0.408-1.032q0-0.672,0.39-1.086t0.966-0.414z M414.29712,48.896q0-0.576,0.408-1.044q0.408-0.492,0.984-0.492l0.156,0l2.244,0l0-0.744l-2.244,0l-0.156,0q-0.612-0.12-1.002-0.528t-0.39-0.972q0-0.708,0.414-1.122t1.134-0.414l4.08,0l0-0.756l-4.08,0q-0.924,0-1.608,0.684q-0.684,0.66-0.684,1.608q0,0.6,0.228,1.092t0.672,0.708q-0.444,0.324-0.672,0.852t-0.228,1.128q0,0.936,0.684,1.596q0.696,0.696,1.608,0.696l4.08,0l0-0.792l-4.08,0q-0.72,0-1.134-0.408t-0.414-1.092z M425.0952,46.988l0.9,0q0.912,0,1.512-0.6t0.6-1.512q0-0.804-0.6-1.44q-0.636-0.66-1.512-0.66l-3.756,0l-0.744,0l0,8.424l0.744,0l0-4.212l1.956,0l2.556,4.212l0.9,0z M422.2392,46.244l0-2.712l3.756,0q0.552,0,0.972,0.396q0.396,0.396,0.396,0.948q0,0.576-0.396,0.972q-0.42,0.396-0.972,0.396l-3.756,0z M429.90528,51.212l0.756,0l0-8.436l-0.756,0l0,8.436z M433.23936,48.896q0-0.576,0.408-1.044q0.408-0.492,0.984-0.492l0.156,0l2.244,0l0-0.744l-2.244,0l-0.156,0q-0.612-0.12-1.002-0.528t-0.39-0.972q0-0.708,0.414-1.122t1.134-0.414l4.08,0l0-0.756l-4.08,0q-0.924,0-1.608,0.684q-0.684,0.66-0.684,1.608q0,0.6,0.228,1.092t0.672,0.708q-0.444,0.324-0.672,0.852t-0.228,1.128q0,0.936,0.684,1.596q0.696,0.696,1.608,0.696l4.08,0l0-0.792l-4.08,0q-0.72,0-1.134-0.408t-0.414-1.092z M442.32144,43.676l4.524,0l0-0.912l-4.524,0q-0.888,0-1.488,0.696q-0.612,0.708-0.612,1.716q0,0.912,0.612,1.584q0.6,0.684,1.488,0.684l1.2,0l1.224,0q0.54,0,0.96,0.456q0.396,0.48,0.396,1.044q0,0.672-0.39,1.092t-0.966,0.42l-4.524,0l0,0.744l4.524,0q0.9,0,1.5-0.624t0.6-1.632q0-0.912-0.6-1.584q-0.612-0.672-1.5-0.672l-1.224,0l-1.2,0q-0.552,0-0.948-0.48q-0.408-0.444-0.408-1.032q0-0.672,0.39-1.086t0.966-0.414z"/></svg>
